<?xml version="1.0" standalone="no"?>
<!DOCTYPE svg PUBLIC "-//W3C//DTD SVG 20010904//EN"
 "http://www.w3.org/TR/2001/REC-SVG-20010904/DTD/svg10.dtd">
<svg version="1.0" xmlns="http://www.w3.org/2000/svg"
 width="1024.000000pt" height="1024.000000pt" viewBox="0 0 1024.000000 1024.000000"
 preserveAspectRatio="xMidYMid meet">
<metadata>
Created by potrace 1.14, written by Peter Selinger 2001-2017
</metadata>
<g transform="translate(0.000000,1024.000000) scale(0.100000,-0.100000)"
fill="#000000" stroke="none">
<path d="M0 5120 l0 -5120 5120 0 5120 0 0 5120 0 5120 -5120 0 -5120 0 0
-5120z m5448 3766 l37 -34 3 -304 c1 -167 -4 -733 -11 -1257 -15 -1004 -15
-1009 28 -1091 47 -90 131 -161 240 -202 l60 -23 1075 -5 1075 -5 57 -28 c77
-38 103 -76 103 -147 0 -41 -7 -70 -26 -105 -23 -44 -626 -899 -1694 -2400
-188 -264 -563 -793 -835 -1175 -271 -382 -506 -710 -523 -727 -41 -43 -104
-68 -139 -54 -61 23 -58 -50 -58 1328 0 1397 3 1328 -66 1430 -42 61 -114 112
-205 145 l-64 23 -1120 5 -1120 5 -49 25 c-97 49 -117 126 -60 231 38 69 3044
4281 3093 4333 71 75 139 86 199 32z"/>
</g>
</svg>
