<svg width="40" height="40" viewBox="0 0 40 40" fill="none" xmlns="http://www.w3.org/2000/svg">
<path opacity="0.4" d="M20.0002 36.5001C29.2049 36.5001 36.6668 29.0382 36.6668 19.8334C36.6668 10.6287 29.2049 3.16675 20.0002 3.16675C10.7954 3.16675 3.3335 10.6287 3.3335 19.8334C3.3335 29.0382 10.7954 36.5001 20.0002 36.5001Z" fill="url(#paint0_linear_563_1078)"/>
<path d="M23.7664 20L21.2498 19.1167V13.4667H21.8498C23.1998 13.4667 24.2998 14.65 24.2998 16.1C24.2998 16.7833 24.8664 17.35 25.5498 17.35C26.2331 17.35 26.7998 16.7833 26.7998 16.1C26.7998 13.2667 24.5831 10.9667 21.8498 10.9667H21.2498V10C21.2498 9.31667 20.6831 8.75 19.9998 8.75C19.3164 8.75 18.7498 9.31667 18.7498 10V10.9667H17.6664C15.1998 10.9667 13.1831 13.05 13.1831 15.6C13.1831 18.5833 14.9164 19.5333 16.2331 20L18.7498 20.8833V26.5167H18.1498C16.7998 26.5167 15.6998 25.3333 15.6998 23.8833C15.6998 23.2 15.1331 22.6333 14.4498 22.6333C13.7664 22.6333 13.1998 23.2 13.1998 23.8833C13.1998 26.7167 15.4164 29.0167 18.1498 29.0167H18.7498V30C18.7498 30.6833 19.3164 31.25 19.9998 31.25C20.6831 31.25 21.2498 30.6833 21.2498 30V29.0333H22.3331C24.7998 29.0333 26.8164 26.95 26.8164 24.4C26.7998 21.4 25.0664 20.45 23.7664 20ZM17.0664 17.65C16.2164 17.35 15.6998 17.0667 15.6998 15.6167C15.6998 14.4333 16.5831 13.4833 17.6831 13.4833H18.7664V18.25L17.0664 17.65ZM22.3331 26.5333H21.2498V21.7667L22.9331 22.35C23.7831 22.65 24.2998 22.9333 24.2998 24.3833C24.2998 25.5667 23.4164 26.5333 22.3331 26.5333Z" fill="url(#paint1_linear_563_1078)"/>
<defs>
<linearGradient id="paint0_linear_563_1078" x1="3.28399" y1="23.6616" x2="29.3929" y2="10.6863" gradientUnits="userSpaceOnUse">
<stop stop-color="#DD3FFF"/>
<stop offset="0.359375" stop-color="#FF33FF"/>
<stop offset="1" stop-color="#FF77FF"/>
</linearGradient>
<linearGradient id="paint1_linear_563_1078" x1="13.1629" y1="22.584" x2="25.3717" y2="18.9076" gradientUnits="userSpaceOnUse">
<stop stop-color="#DD3FFF"/>
<stop offset="0.359375" stop-color="#FF33FF"/>
<stop offset="1" stop-color="#FF77FF"/>
</linearGradient>
</defs>
</svg>
