<svg width="40" height="40" viewBox="0 0 40 40" fill="none" xmlns="http://www.w3.org/2000/svg">
<path opacity="0.4" d="M34.8499 18.5334C34.8499 26.6834 28.9333 34.3167 20.8499 36.5501C20.2999 36.7001 19.6999 36.7001 19.1499 36.5501C11.0666 34.3167 5.1499 26.6834 5.1499 18.5334V11.2168C5.1499 9.85011 6.18326 8.30011 7.46659 7.78345L16.7499 3.98345C18.8332 3.13345 21.1832 3.13345 23.2666 3.98345L32.5499 7.78345C33.8166 8.30011 34.8666 9.85011 34.8666 11.2168L34.8499 18.5334Z" fill="url(#paint0_linear_563_1060)"/>
<path d="M24.1668 17.4999C24.1668 15.1999 22.3002 13.3333 20.0002 13.3333C17.7002 13.3333 15.8335 15.1999 15.8335 17.4999C15.8335 19.3666 17.0668 20.9166 18.7502 21.4499V25.8332C18.7502 26.5166 19.3168 27.0832 20.0002 27.0832C20.6835 27.0832 21.2502 26.5166 21.2502 25.8332V21.4499C22.9335 20.9166 24.1668 19.3666 24.1668 17.4999Z" fill="url(#paint1_linear_563_1060)"/>
<defs>
<linearGradient id="paint0_linear_563_1060" x1="5.10577" y1="23.8305" x2="29.3641" y2="13.0776" gradientUnits="userSpaceOnUse">
<stop stop-color="#DD3FFF"/>
<stop offset="0.359375" stop-color="#FF33FF"/>
<stop offset="1" stop-color="#FF77FF"/>
</linearGradient>
<linearGradient id="paint1_linear_563_1060" x1="15.8211" y1="21.7874" x2="23.2835" y2="19.5398" gradientUnits="userSpaceOnUse">
<stop stop-color="#DD3FFF"/>
<stop offset="0.359375" stop-color="#FF33FF"/>
<stop offset="1" stop-color="#FF77FF"/>
</linearGradient>
</defs>
</svg>
