<svg width="40" height="40" viewBox="0 0 40 40" fill="none" xmlns="http://www.w3.org/2000/svg">
<path opacity="0.4" d="M16.6502 29.9666C24.0048 29.9666 29.9668 24.0045 29.9668 16.6499C29.9668 9.29533 24.0048 3.33325 16.6502 3.33325C9.29557 3.33325 3.3335 9.29533 3.3335 16.6499C3.3335 24.0045 9.29557 29.9666 16.6502 29.9666Z" fill="url(#paint0_linear_563_1070)"/>
<path d="M36.6168 26.6499C36.6168 32.1499 32.1501 36.6165 26.6501 36.6165C23.2501 36.6165 20.2668 34.9166 18.4668 32.3332C25.7335 31.5166 31.5168 25.7332 32.3335 18.4666C34.9168 20.2666 36.6168 23.2499 36.6168 26.6499Z" fill="url(#paint1_linear_563_1070)"/>
<path d="M19.0835 16.1833L15.0835 14.7833C14.6835 14.65 14.6002 14.6167 14.6002 14.0333C14.6002 13.6 14.9002 13.25 15.2835 13.25H17.7835C18.3168 13.25 18.7502 13.7334 18.7502 14.3334C18.7502 15.0167 19.3168 15.5833 20.0002 15.5833C20.6835 15.5833 21.2502 15.0167 21.2502 14.3334C21.2502 12.4167 19.7668 10.85 17.9168 10.7667V10.6833C17.9168 10 17.3502 9.43335 16.6668 9.43335C15.9835 9.43335 15.4168 9.98335 15.4168 10.6833V10.7667H15.2668C13.5168 10.7667 12.0835 12.2334 12.0835 14.05C12.0835 15.6333 12.7835 16.65 14.2335 17.15L18.2502 18.55C18.6502 18.6833 18.7335 18.7167 18.7335 19.3C18.7335 19.7333 18.4335 20.0833 18.0502 20.0833H15.5502C15.0168 20.0833 14.5835 19.6 14.5835 19C14.5835 18.3167 14.0168 17.75 13.3335 17.75C12.6502 17.75 12.0835 18.3167 12.0835 19C12.0835 20.9167 13.5668 22.4833 15.4168 22.5667V22.6667C15.4168 23.35 15.9835 23.9167 16.6668 23.9167C17.3502 23.9167 17.9168 23.35 17.9168 22.6667V22.5833H18.0668C19.8168 22.5833 21.2502 21.1167 21.2502 19.3C21.2502 17.7167 20.5335 16.7 19.0835 16.1833Z" fill="url(#paint2_linear_563_1070)"/>
<defs>
<linearGradient id="paint0_linear_563_1070" x1="3.29394" y1="19.7086" x2="24.155" y2="9.34141" gradientUnits="userSpaceOnUse">
<stop stop-color="#DD3FFF"/>
<stop offset="0.359375" stop-color="#FF33FF"/>
<stop offset="1" stop-color="#FF77FF"/>
</linearGradient>
<linearGradient id="paint1_linear_563_1070" x1="18.4398" y1="29.626" x2="32.6561" y2="22.561" gradientUnits="userSpaceOnUse">
<stop stop-color="#DD3FFF"/>
<stop offset="0.359375" stop-color="#FF33FF"/>
<stop offset="1" stop-color="#FF77FF"/>
</linearGradient>
<linearGradient id="paint2_linear_563_1070" x1="12.0699" y1="18.3384" x2="20.2171" y2="15.7758" gradientUnits="userSpaceOnUse">
<stop stop-color="#DD3FFF"/>
<stop offset="0.359375" stop-color="#FF33FF"/>
<stop offset="1" stop-color="#FF77FF"/>
</linearGradient>
</defs>
</svg>
