<svg width="40" height="40" viewBox="0 0 40 40" fill="none" xmlns="http://www.w3.org/2000/svg">
<path fill-rule="evenodd" clip-rule="evenodd" d="M12 4.66372V5.32752L18.5546 8.02811C22.1597 9.51339 25.1807 10.7928 25.268 10.8711C25.4724 11.0547 25.471 11.3709 25.2649 11.5574C25.1282 11.6813 21.9637 13.0076 13.5196 16.4805L12 17.1055V19.7156C12 21.6382 12.0278 22.3257 12.1054 22.3257C12.1635 22.3257 13.9423 21.6118 16.0584 20.7393L19.906 19.153L22.5849 20.2563C24.7078 21.1307 25.2836 21.4032 25.3594 21.5697C25.5869 22.069 25.689 22.018 18.6594 24.9199L12.0454 27.6504L12.0218 31.8475C12.003 35.1943 12.0213 36.0353 12.1125 35.9989C12.1754 35.9737 13.8802 35.2699 15.901 34.4349C17.9218 33.5999 21.2482 32.2269 23.2931 31.3836C27.2357 29.7578 27.4038 29.6655 27.8161 28.9029C28.0041 28.5551 28.0135 28.415 28.0405 25.5206C28.0833 20.9443 28.2777 21.256 24.3834 19.6577C22.9364 19.0639 21.72 18.5498 21.6804 18.5154C21.6407 18.481 22.7226 17.9926 24.0845 17.43C27.0592 16.2013 27.137 16.1631 27.4968 15.7533C27.9685 15.216 28.0812 14.6354 28.0409 12.9495C28.0103 11.6707 27.9812 11.4378 27.8121 11.1168C27.4093 10.3517 27.2954 10.2906 22.8555 8.45831C20.5524 7.50782 17.1804 6.11589 15.3622 5.36508C13.544 4.61427 12.0437 4 12.0282 4C12.0127 4 12 4.29865 12 4.66372Z" fill="url(#paint0_linear_563_1067)"/>
<defs>
<linearGradient id="paint0_linear_563_1067" x1="11.9762" y1="23.675" x2="26.7401" y2="19.9937" gradientUnits="userSpaceOnUse">
<stop stop-color="#DD3FFF"/>
<stop offset="0.359375" stop-color="#FF33FF"/>
<stop offset="1" stop-color="#FF77FF"/>
</linearGradient>
</defs>
</svg>
